<svg xmlns="http://www.w3.org/2000/svg" style="display: none;" width="15px">
    <symbol id="settings" viewBox="0 0 25 27">
        <mask id="path-1-outside-1_1664_46818" x="0.00390625" y="0" width="25" height="27" fill="black">
            <rect fill="white" x="0.00390625" width="25" height="27"/>
            <path fill-rule="evenodd" clip-rule="evenodd" d="M9.18109 2C9.18109 1.44772 9.6288 1 10.1811 1H14.1946C14.7469 1 15.1946 1.44771 15.1946 2V3.81276C15.1946 4.23655 15.4641 4.60931 15.8513 4.78161C16.1922 4.93331 16.5219 5.10551 16.8389 5.29668C17.2021 5.5157 17.6625 5.52286 18.0099 5.27959L19.4961 4.23899C19.9485 3.92221 20.572 4.03216 20.8888 4.48457L23.1908 7.77223C23.5076 8.22464 23.3977 8.8482 22.9452 9.16497L21.4598 10.2051C21.1128 10.448 20.962 10.8824 21.0427 11.2983C21.1513 11.8577 21.2081 12.4357 21.2081 13.027C21.2081 13.6181 21.1513 14.196 21.0427 14.7554C20.962 15.1713 21.1128 15.6056 21.4598 15.8486L22.9453 16.8887C23.3978 17.2055 23.5077 17.829 23.1909 18.2815L20.8889 21.5691C20.5721 22.0215 19.9485 22.1314 19.4961 21.8146L18.0102 20.7741C17.6628 20.5308 17.2024 20.538 16.8392 20.757C16.5221 20.9483 16.1923 21.1206 15.8513 21.2724C15.4641 21.4447 15.1946 21.8175 15.1946 22.2413V24.0541C15.1946 24.6063 14.7469 25.0541 14.1946 25.0541H10.1811C9.6288 25.0541 9.18109 24.6063 9.18109 24.0541V22.2413C9.18109 21.8175 8.91155 21.4447 8.52438 21.2724C8.1834 21.1206 7.85358 20.9483 7.53648 20.757C7.17329 20.538 6.7129 20.5308 6.36548 20.7741L4.87964 21.8146C4.42724 22.1314 3.80367 22.0215 3.48688 21.5691L1.18484 18.2814C0.868062 17.829 0.97801 17.2055 1.43042 16.8887L2.91587 15.8486C3.26286 15.6056 3.41366 15.1713 3.33298 14.7555C3.22443 14.196 3.16757 13.6181 3.16757 13.027C3.16757 12.4357 3.22447 11.8577 3.33307 11.2983C3.4138 10.8824 3.263 10.448 2.91597 10.2051L1.43053 9.16497C0.978113 8.8482 0.86816 8.22464 1.18494 7.77223L3.48699 4.48458C3.80377 4.03217 4.42732 3.92222 4.87973 4.23901L6.36576 5.27958C6.71318 5.52286 7.17355 5.5157 7.53676 5.29668C7.85378 5.10551 8.18351 4.93331 8.52439 4.78161C8.91157 4.60931 9.18109 4.23655 9.18109 3.81276V2ZM12.1883 16.033C13.8489 16.033 15.1951 14.6869 15.1951 13.0263C15.1951 11.3657 13.8489 10.0195 12.1883 10.0195C10.5277 10.0195 9.18157 11.3657 9.18157 13.0263C9.18157 14.6869 10.5277 16.033 12.1883 16.033Z"/>
        </mask>
        <path fill-rule="evenodd" clip-rule="evenodd" d="M9.18109 2C9.18109 1.44772 9.6288 1 10.1811 1H14.1946C14.7469 1 15.1946 1.44771 15.1946 2V3.81276C15.1946 4.23655 15.4641 4.60931 15.8513 4.78161C16.1922 4.93331 16.5219 5.10551 16.8389 5.29668C17.2021 5.5157 17.6625 5.52286 18.0099 5.27959L19.4961 4.23899C19.9485 3.92221 20.572 4.03216 20.8888 4.48457L23.1908 7.77223C23.5076 8.22464 23.3977 8.8482 22.9452 9.16497L21.4598 10.2051C21.1128 10.448 20.962 10.8824 21.0427 11.2983C21.1513 11.8577 21.2081 12.4357 21.2081 13.027C21.2081 13.6181 21.1513 14.196 21.0427 14.7554C20.962 15.1713 21.1128 15.6056 21.4598 15.8486L22.9453 16.8887C23.3978 17.2055 23.5077 17.829 23.1909 18.2815L20.8889 21.5691C20.5721 22.0215 19.9485 22.1314 19.4961 21.8146L18.0102 20.7741C17.6628 20.5308 17.2024 20.538 16.8392 20.757C16.5221 20.9483 16.1923 21.1206 15.8513 21.2724C15.4641 21.4447 15.1946 21.8175 15.1946 22.2413V24.0541C15.1946 24.6063 14.7469 25.0541 14.1946 25.0541H10.1811C9.6288 25.0541 9.18109 24.6063 9.18109 24.0541V22.2413C9.18109 21.8175 8.91155 21.4447 8.52438 21.2724C8.1834 21.1206 7.85358 20.9483 7.53648 20.757C7.17329 20.538 6.7129 20.5308 6.36548 20.7741L4.87964 21.8146C4.42724 22.1314 3.80367 22.0215 3.48688 21.5691L1.18484 18.2814C0.868062 17.829 0.97801 17.2055 1.43042 16.8887L2.91587 15.8486C3.26286 15.6056 3.41366 15.1713 3.33298 14.7555C3.22443 14.196 3.16757 13.6181 3.16757 13.027C3.16757 12.4357 3.22447 11.8577 3.33307 11.2983C3.4138 10.8824 3.263 10.448 2.91597 10.2051L1.43053 9.16497C0.978113 8.8482 0.86816 8.22464 1.18494 7.77223L3.48699 4.48458C3.80377 4.03217 4.42732 3.92222 4.87973 4.23901L6.36576 5.27958C6.71318 5.52286 7.17355 5.5157 7.53676 5.29668C7.85378 5.10551 8.18351 4.93331 8.52439 4.78161C8.91157 4.60931 9.18109 4.23655 9.18109 3.81276V2ZM12.1883 16.033C13.8489 16.033 15.1951 14.6869 15.1951 13.0263C15.1951 11.3657 13.8489 10.0195 12.1883 10.0195C10.5277 10.0195 9.18157 11.3657 9.18157 13.0263C9.18157 14.6869 10.5277 16.033 12.1883 16.033Z" fill="#EAEAEA"/>
        <path d="M1.43053 9.16497L0.856965 9.98413L1.43053 9.16497ZM2.91597 10.2051L3.48953 9.38589L2.91597 10.2051ZM2.91587 15.8486L2.34229 15.0294L2.91587 15.8486ZM3.33298 14.7555L2.35129 14.9459L3.33298 14.7555ZM1.18484 18.2814L0.365689 18.855L1.18484 18.2814ZM1.43042 16.8887L0.85684 16.0696L1.43042 16.8887ZM4.87964 21.8146L4.30603 20.9955L4.87964 21.8146ZM7.53648 20.757L8.05296 19.9008L7.53648 20.757ZM6.36548 20.7741L6.93909 21.5933L6.36548 20.7741ZM8.52438 21.2724L8.11772 22.186L8.52438 21.2724ZM15.8513 21.2724L16.258 22.186L15.8513 21.2724ZM20.8889 21.5691L21.708 22.1427L20.8889 21.5691ZM19.4961 21.8146L18.9225 22.6338L19.4961 21.8146ZM22.9453 16.8887L23.5189 16.0695L22.9453 16.8887ZM21.0427 14.7554L22.0244 14.9459L21.0427 14.7554ZM21.4598 15.8486L22.0334 15.0294L21.4598 15.8486ZM21.4598 10.2051L22.0334 11.0242L21.4598 10.2051ZM21.0427 11.2983L22.0244 11.1078L21.0427 11.2983ZM22.9452 9.16497L22.3717 8.34581L22.9452 9.16497ZM19.4961 4.23899L18.9225 3.41984L19.4961 4.23899ZM20.8888 4.48457L21.7079 3.91099L20.8888 4.48457ZM16.8389 5.29668L17.3553 4.44033L16.8389 5.29668ZM18.0099 5.27959L17.4363 4.46044L18.0099 5.27959ZM6.36576 5.27958L5.79217 6.09872L6.36576 5.27958ZM16.8392 20.757L17.3557 21.6133L16.8392 20.757ZM4.87973 4.23901L5.45332 3.41987L4.87973 4.23901ZM14.1946 0H10.1811V2H14.1946V0ZM16.1946 3.81276V2H14.1946V3.81276H16.1946ZM17.3553 4.44033C17.0031 4.22796 16.6367 4.0366 16.2579 3.86799L15.4447 5.69523C15.7476 5.83002 16.0407 5.98307 16.3225 6.15304L17.3553 4.44033ZM18.9225 3.41984L17.4363 4.46044L18.5835 6.09875L20.0696 5.05814L18.9225 3.41984ZM24.01 7.19866L21.7079 3.91099L20.0696 5.05814L22.3717 8.34581L24.01 7.19866ZM22.0334 11.0242L23.5188 9.98413L22.3717 8.34581L20.8862 9.38589L22.0334 11.0242ZM22.2081 13.027C22.2081 12.3715 22.1451 11.7297 22.0244 11.1078L20.061 11.4888C20.1574 11.9858 20.2081 12.4999 20.2081 13.027H22.2081ZM22.0244 14.9459C22.1451 14.3241 22.2081 13.6824 22.2081 13.027H20.2081C20.2081 13.5539 20.1574 14.068 20.061 14.565L22.0244 14.9459ZM23.5189 16.0695L22.0334 15.0294L20.8863 16.6677L22.3718 17.7079L23.5189 16.0695ZM21.708 22.1427L24.0101 18.855L22.3718 17.7079L20.0697 20.9955L21.708 22.1427ZM17.4366 21.5933L18.9225 22.6338L20.0697 20.9955L18.5838 19.955L17.4366 21.5933ZM16.258 22.186C16.637 22.0173 17.0035 21.8258 17.3557 21.6133L16.3227 19.9007C16.0408 20.0708 15.7476 20.224 15.4447 20.3588L16.258 22.186ZM16.1946 24.0541V22.2413H14.1946V24.0541H16.1946ZM10.1811 26.0541H14.1946V24.0541H10.1811V26.0541ZM8.18109 22.2413V24.0541H10.1811V22.2413H8.18109ZM7.02 21.6133C7.37223 21.8258 7.73872 22.0173 8.11772 22.186L8.93103 20.3588C8.62809 20.224 8.33492 20.0708 8.05296 19.9008L7.02 21.6133ZM5.45326 22.6338L6.93909 21.5933L5.79186 19.955L4.30603 20.9955L5.45326 22.6338ZM0.365689 18.855L2.66773 22.1427L4.30603 20.9955L2.00399 17.7079L0.365689 18.855ZM2.34229 15.0294L0.85684 16.0696L2.00399 17.7079L3.48944 16.6677L2.34229 15.0294ZM2.16757 13.027C2.16757 13.6824 2.23063 14.3241 2.35129 14.9459L4.31467 14.565C4.21824 14.068 4.16757 13.5539 4.16757 13.027H2.16757ZM2.3514 11.1077C2.23068 11.7296 2.16757 12.3714 2.16757 13.027H4.16757C4.16757 12.5 4.21827 11.9858 4.31475 11.4889L2.3514 11.1077ZM0.856965 9.98413L2.3424 11.0242L3.48953 9.38589L2.00409 8.34581L0.856965 9.98413ZM2.66783 3.911L0.36579 7.19866L2.00409 8.34581L4.30614 5.05815L2.66783 3.911ZM6.93935 4.46044L5.45332 3.41987L4.30614 5.05816L5.79217 6.09872L6.93935 4.46044ZM8.11782 3.86799C7.73895 4.03659 7.37256 4.22795 7.02037 4.44033L8.05315 6.15303C8.33501 5.98307 8.62808 5.83002 8.93096 5.69523L8.11782 3.86799ZM8.18109 2V3.81276H10.1811V2H8.18109ZM14.1951 13.0263C14.1951 14.1346 13.2966 15.033 12.1883 15.033V17.033C14.4012 17.033 16.1951 15.2392 16.1951 13.0263H14.1951ZM12.1883 11.0195C13.2966 11.0195 14.1951 11.918 14.1951 13.0263H16.1951C16.1951 10.8134 14.4012 9.01953 12.1883 9.01953V11.0195ZM10.1816 13.0263C10.1816 11.918 11.08 11.0195 12.1883 11.0195V9.01953C9.97546 9.01953 8.18157 10.8134 8.18157 13.0263H10.1816ZM12.1883 15.033C11.08 15.033 10.1816 14.1346 10.1816 13.0263H8.18157C8.18157 15.2392 9.97546 17.033 12.1883 17.033V15.033ZM8.93096 5.69523C9.63721 5.38094 10.1811 4.6754 10.1811 3.81276H8.18109C8.18109 3.80867 8.18309 3.81163 8.17499 3.82336C8.16564 3.83691 8.14679 3.8551 8.11782 3.86799L8.93096 5.69523ZM2.00409 8.34581L2.00409 8.34581L0.36579 7.19866C-0.267773 8.10348 -0.0478662 9.35058 0.856965 9.98413L2.00409 8.34581ZM4.31475 11.4889C4.462 10.7303 4.19592 9.88049 3.48953 9.38589L2.3424 11.0242C2.33906 11.0219 2.34264 11.0219 2.34761 11.0353C2.35334 11.0507 2.35744 11.0766 2.3514 11.1077L4.31475 11.4889ZM3.48944 16.6677C4.19574 16.1732 4.46185 15.3235 4.31467 14.565L2.35129 14.9459C2.35733 14.9771 2.35323 15.0029 2.34749 15.0184C2.34253 15.0317 2.33895 15.0318 2.34229 15.0294L3.48944 16.6677ZM2.00399 17.7079L2.00399 17.7079L0.85684 16.0696C-0.0479727 16.7031 -0.267867 17.9502 0.365689 18.855L2.00399 17.7079ZM4.30603 20.9955L4.30603 20.9955L2.66773 22.1427C3.3013 23.0475 4.54845 23.2674 5.45326 22.6338L4.30603 20.9955ZM8.05296 19.9008C7.38999 19.5009 6.49901 19.4598 5.79186 19.955L6.93909 21.5933C6.93577 21.5956 6.93702 21.5923 6.95116 21.5922C6.9675 21.5921 6.99303 21.5971 7.02 21.6133L8.05296 19.9008ZM10.1811 22.2413C10.1811 21.3786 9.63718 20.6731 8.93103 20.3588L8.11772 22.186C8.14673 22.1989 8.16561 22.2171 8.17498 22.2307C8.18309 22.2424 8.18109 22.2454 8.18109 22.2413H10.1811ZM10.1811 24.0541H8.18109C8.18109 25.1586 9.07652 26.0541 10.1811 26.0541V24.0541ZM14.1946 24.0541H14.1946V26.0541C15.2992 26.0541 16.1946 25.1586 16.1946 24.0541H14.1946ZM15.4447 20.3588C14.7385 20.6731 14.1946 21.3786 14.1946 22.2413H16.1946C16.1946 22.2454 16.1926 22.2424 16.2007 22.2307C16.2101 22.2171 16.229 22.1989 16.258 22.186L15.4447 20.3588ZM20.0697 20.9955L18.9225 22.6338C19.8273 23.2674 21.0745 23.0475 21.708 22.1427L20.0697 20.9955ZM22.3718 17.7079L24.0101 18.855C24.6436 17.9502 24.4237 16.7031 23.5189 16.0695L22.3718 17.7079ZM20.061 14.565C19.9138 15.3235 20.18 16.1732 20.8863 16.6677L22.0334 15.0294C22.0367 15.0318 22.0332 15.0317 22.0282 15.0183C22.0225 15.0029 22.0184 14.977 22.0244 14.9459L20.061 14.565ZM20.8862 9.38589C20.1799 9.8805 19.9138 10.7303 20.061 11.4888L22.0244 11.1078C22.0183 11.0766 22.0224 11.0507 22.0282 11.0353C22.0331 11.0219 22.0367 11.0219 22.0334 11.0242L20.8862 9.38589ZM22.3717 8.34581L22.3717 8.34581L23.5188 9.98413C24.4236 9.35058 24.6435 8.10348 24.01 7.19866L22.3717 8.34581ZM20.0696 5.05814H20.0696L21.7079 3.91099C21.0744 3.00618 19.8273 2.78628 18.9225 3.41984L20.0696 5.05814ZM16.3225 6.15304C16.9855 6.55278 17.8764 6.5939 18.5835 6.09875L17.4363 4.46044C17.4397 4.45811 17.4384 4.46143 17.4243 4.46152C17.4079 4.46161 17.3823 4.45662 17.3553 4.44033L16.3225 6.15304ZM14.1946 3.81276C14.1946 4.67539 14.7385 5.38094 15.4447 5.69523L16.2579 3.86799C16.2289 3.8551 16.21 3.83691 16.2007 3.82336C16.1926 3.81163 16.1946 3.80867 16.1946 3.81276H14.1946ZM5.79217 6.09872C6.49932 6.59389 7.39023 6.55278 8.05315 6.15303L7.02037 4.44033C6.99337 4.45661 6.9678 4.46161 6.95144 4.46151C6.93727 4.46142 6.93602 4.4581 6.93935 4.46044L5.79217 6.09872ZM10.1811 0C9.07651 0 8.18109 0.895432 8.18109 2H10.1811H10.1811V0ZM18.5838 19.955C17.8767 19.4598 16.9857 19.5009 16.3227 19.9007L17.3557 21.6133C17.3827 21.5971 17.4082 21.5921 17.4245 21.5922C17.4387 21.5923 17.4399 21.5956 17.4366 21.5933L18.5838 19.955ZM4.30614 5.05815L4.30614 5.05816L5.45332 3.41987C4.54851 2.78629 3.3014 3.00618 2.66783 3.911L4.30614 5.05815ZM14.1946 2V2H16.1946C16.1946 0.895429 15.2992 0 14.1946 0V2Z" fill="black" fill-opacity="0.1" mask="url(#path-1-outside-1_1664_46818)"/>    </symbol>
    <symbol id="fullScreen" viewBox="0 0 15 15">
     <defs/><g fill="none" fill-rule="evenodd" id="Page-1" stroke="none" stroke-width="1"><g fill="#FFF" id="Core" transform="translate(-215.000000, -257.000000)"><g id="fullscreen" transform="translate(215.000000, 257.000000)"><path d="M2,9 L0,9 L0,14 L5,14 L5,12 L2,12 L2,9 L2,9 Z M0,5 L2,5 L2,2 L5,2 L5,0 L0,0 L0,5 L0,5 Z M12,12 L9,12 L9,14 L14,14 L14,9 L12,9 L12,12 L12,12 Z M9,0 L9,2 L12,2 L12,5 L14,5 L14,0 L9,0 L9,0 Z" id="Shape"/></g></g></g>
    </symbol>

    <symbol id="play" viewBox="0 0 15 15">
        <path fill-rule="evenodd" clip-rule="evenodd" d="M0.7314 15.9551C0.6324 16.0311 0.4914 16.0131 0.4154 15.9131C0.3774 15.8621 0.3604 15.7991 0.3704 15.7381V0.265058C0.3484 0.143058 0.4314 0.0250581 0.5524 0.00305814C0.6164 -0.00594186 0.6804 0.0100581 0.7284 0.0480581L15.4794 7.81106C15.6774 7.91706 15.6774 8.08606 15.4794 8.19106L0.7314 15.9551Z" fill="white"/>
    </symbol>

    <symbol id="stop" viewBox="0 0 20 20">
        <path fill-rule="evenodd" clip-rule="evenodd" d="M5.0039 16.5021C5.0199 16.7611 4.8229 16.9831 4.5609 17.0041H4.5019H1.5019C1.2429 17.0201 1.0199 16.8231 0.9999 16.5611V16.5021V1.50205C0.9839 1.24305 1.1809 1.02005 1.4429 1.00005H1.5019H4.5019C4.7609 0.984055 4.9839 1.18105 5.0039 1.44305V1.50205V16.5021ZM13.0039 1.50605C13.0199 1.24705 12.8229 1.02305 12.5609 1.00405H12.5019H9.5019C9.2429 0.988055 9.0199 1.18505 8.9999 1.44705V1.50605V16.5061C8.9839 16.7651 9.1799 16.9871 9.4429 17.0081H9.5019H12.5019C12.7599 17.0231 12.9839 16.8271 13.0039 16.5641V16.5061V1.50605Z" fill="white"/>
    </symbol>
    <symbol id="sound" viewBox="0 0 200 200">
        <path class="cls-1" fill="#FFFFFF" d="M100,175.69a5,5,0,0,1-3.37-1.31L48.06,130H29.31a5,5,0,0,1-5-5V75a5,5,0,0,1,5-5H48.06L96.63,25.62A5,5,0,0,1,105,29.31V170.69a5,5,0,0,1-5,5ZM34.31,120H50a5,5,0,0,1,3.37,1.31l41.63,38V40.65l-41.63,38A5,5,0,0,1,50,80H34.31Z"/><path fill="#FFFFFF"  class="cls-1" d="M119.4,122.53a5,5,0,0,1-3.54-8.53,19.82,19.82,0,0,0,0-28,5,5,0,0,1,7.07-7.07,29.83,29.83,0,0,1,0,42.14A5,5,0,0,1,119.4,122.53Z"/><path fill="#FFFFFF" class="cls-1" d="M137.08,140.21a5,5,0,0,1-3.54-8.54,44.78,44.78,0,0,0,0-63.34,5,5,0,1,1,7.07-7.07,54.78,54.78,0,0,1,0,77.48A5,5,0,0,1,137.08,140.21Z"/><path fill="#FFFFFF" class="cls-1" d="M152,155.13a5,5,0,0,1-3.54-8.53,65.91,65.91,0,0,0,0-93.2,5,5,0,1,1,7.07-7.07,75.9,75.9,0,0,1,0,107.34A5,5,0,0,1,152,155.13Z"/>
    </symbol>
    <symbol id="subtitles"   viewBox="0 0 26 21" fill="none">
        <mask id="path-1-outside-1_1664_46822" x="0" y="0" width="26" height="21" fill="black">
            <rect fill="white" width="26" height="21"/>
            <path fill-rule="evenodd" clip-rule="evenodd" d="M1 3C1 1.89543 1.89543 1 3 1H23C24.1046 1 25 1.89543 25 3V17.6667C25 18.7712 24.1046 19.6667 23 19.6667H3C1.89543 19.6667 1 18.7712 1 17.6667V3ZM17.0026 6.33203H19.6693C20.4056 6.33203 21.0026 6.92899 21.0026 7.66536C21.0026 8.40174 20.4056 8.9987 19.6693 8.9987H18.3359C17.5996 8.9987 17.0026 9.59565 17.0026 10.332C17.0026 11.0684 17.5996 11.6654 18.3359 11.6654H19.6693C20.4056 11.6654 21.0026 12.2623 21.0026 12.9987C21.0026 13.7351 20.4056 14.332 19.6693 14.332H17.0026C15.5298 14.332 14.3359 13.1381 14.3359 11.6654V8.9987C14.3359 7.52594 15.5298 6.33203 17.0026 6.33203ZM10.3333 6.33203H7.66667C6.19391 6.33203 5 7.52594 5 8.9987V11.6654C5 13.1381 6.19391 14.332 7.66667 14.332H10.3333C11.0697 14.332 11.6667 13.7351 11.6667 12.9987C11.6667 12.2623 11.0697 11.6654 10.3333 11.6654H9C8.26362 11.6654 7.66667 11.0684 7.66667 10.332C7.66667 9.59565 8.26362 8.9987 9 8.9987H10.3333C11.0697 8.9987 11.6667 8.40174 11.6667 7.66536C11.6667 6.92899 11.0697 6.33203 10.3333 6.33203Z"/>
        </mask>
        <path fill-rule="evenodd" clip-rule="evenodd" d="M1 3C1 1.89543 1.89543 1 3 1H23C24.1046 1 25 1.89543 25 3V17.6667C25 18.7712 24.1046 19.6667 23 19.6667H3C1.89543 19.6667 1 18.7712 1 17.6667V3ZM17.0026 6.33203H19.6693C20.4056 6.33203 21.0026 6.92899 21.0026 7.66536C21.0026 8.40174 20.4056 8.9987 19.6693 8.9987H18.3359C17.5996 8.9987 17.0026 9.59565 17.0026 10.332C17.0026 11.0684 17.5996 11.6654 18.3359 11.6654H19.6693C20.4056 11.6654 21.0026 12.2623 21.0026 12.9987C21.0026 13.7351 20.4056 14.332 19.6693 14.332H17.0026C15.5298 14.332 14.3359 13.1381 14.3359 11.6654V8.9987C14.3359 7.52594 15.5298 6.33203 17.0026 6.33203ZM10.3333 6.33203H7.66667C6.19391 6.33203 5 7.52594 5 8.9987V11.6654C5 13.1381 6.19391 14.332 7.66667 14.332H10.3333C11.0697 14.332 11.6667 13.7351 11.6667 12.9987C11.6667 12.2623 11.0697 11.6654 10.3333 11.6654H9C8.26362 11.6654 7.66667 11.0684 7.66667 10.332C7.66667 9.59565 8.26362 8.9987 9 8.9987H10.3333C11.0697 8.9987 11.6667 8.40174 11.6667 7.66536C11.6667 6.92899 11.0697 6.33203 10.3333 6.33203Z" fill="#EAEAEA"/>
        <path d="M3 0C1.34315 0 0 1.34314 0 3H2C2 2.44771 2.44771 2 3 2V0ZM23 0H3V2H23V0ZM26 3C26 1.34315 24.6569 0 23 0V2C23.5523 2 24 2.44772 24 3H26ZM26 17.6667V3H24V17.6667H26ZM23 20.6667C24.6569 20.6667 26 19.3235 26 17.6667H24C24 18.219 23.5523 18.6667 23 18.6667V20.6667ZM3 20.6667H23V18.6667H3V20.6667ZM0 17.6667C0 19.3235 1.34315 20.6667 3 20.6667V18.6667C2.44771 18.6667 2 18.219 2 17.6667H0ZM0 3V17.6667H2V3H0ZM19.6693 5.33203H17.0026V7.33203H19.6693V5.33203ZM22.0026 7.66536C22.0026 6.3767 20.9579 5.33203 19.6693 5.33203V7.33203C19.8534 7.33203 20.0026 7.48127 20.0026 7.66536H22.0026ZM19.6693 9.9987C20.9579 9.9987 22.0026 8.95403 22.0026 7.66536H20.0026C20.0026 7.84946 19.8534 7.9987 19.6693 7.9987V9.9987ZM18.3359 9.9987H19.6693V7.9987H18.3359V9.9987ZM18.0026 10.332C18.0026 10.1479 18.1518 9.9987 18.3359 9.9987V7.9987C17.0473 7.9987 16.0026 9.04337 16.0026 10.332H18.0026ZM18.3359 10.6654C18.1518 10.6654 18.0026 10.5161 18.0026 10.332H16.0026C16.0026 11.6207 17.0473 12.6654 18.3359 12.6654V10.6654ZM19.6693 10.6654H18.3359V12.6654H19.6693V10.6654ZM22.0026 12.9987C22.0026 11.71 20.9579 10.6654 19.6693 10.6654V12.6654C19.8534 12.6654 20.0026 12.8146 20.0026 12.9987H22.0026ZM19.6693 15.332C20.9579 15.332 22.0026 14.2874 22.0026 12.9987H20.0026C20.0026 13.1828 19.8534 13.332 19.6693 13.332V15.332ZM17.0026 15.332H19.6693V13.332H17.0026V15.332ZM13.3359 11.6654C13.3359 13.6904 14.9776 15.332 17.0026 15.332V13.332C16.0821 13.332 15.3359 12.5858 15.3359 11.6654H13.3359ZM13.3359 8.9987V11.6654H15.3359V8.9987H13.3359ZM17.0026 5.33203C14.9776 5.33203 13.3359 6.97365 13.3359 8.9987H15.3359C15.3359 8.07822 16.0821 7.33203 17.0026 7.33203V5.33203ZM7.66667 7.33203H10.3333V5.33203H7.66667V7.33203ZM6 8.9987C6 8.07822 6.74619 7.33203 7.66667 7.33203V5.33203C5.64162 5.33203 4 6.97365 4 8.9987H6ZM6 11.6654V8.9987H4V11.6654H6ZM7.66667 13.332C6.74619 13.332 6 12.5858 6 11.6654H4C4 13.6904 5.64162 15.332 7.66667 15.332V13.332ZM10.3333 13.332H7.66667V15.332H10.3333V13.332ZM10.6667 12.9987C10.6667 13.1828 10.5174 13.332 10.3333 13.332V15.332C11.622 15.332 12.6667 14.2874 12.6667 12.9987H10.6667ZM10.3333 12.6654C10.5174 12.6654 10.6667 12.8146 10.6667 12.9987H12.6667C12.6667 11.71 11.622 10.6654 10.3333 10.6654V12.6654ZM9 12.6654H10.3333V10.6654H9V12.6654ZM6.66667 10.332C6.66667 11.6207 7.71134 12.6654 9 12.6654V10.6654C8.81591 10.6654 8.66667 10.5161 8.66667 10.332H6.66667ZM9 7.9987C7.71134 7.9987 6.66667 9.04337 6.66667 10.332H8.66667C8.66667 10.1479 8.8159 9.9987 9 9.9987V7.9987ZM10.3333 7.9987H9V9.9987H10.3333V7.9987ZM10.6667 7.66536C10.6667 7.84946 10.5174 7.9987 10.3333 7.9987V9.9987C11.622 9.9987 12.6667 8.95403 12.6667 7.66536H10.6667ZM10.3333 7.33203C10.5174 7.33203 10.6667 7.48127 10.6667 7.66536H12.6667C12.6667 6.3767 11.622 5.33203 10.3333 5.33203V7.33203Z" fill="black" fill-opacity="0.1" mask="url(#path-1-outside-1_1664_46822)"/>
    </symbol>

</svg>