<svg xmlns="http://www.w3.org/2000/svg" style="display: none;" width="15px">
    <symbol id="settings" viewBox="0 0 50 50">
       <path style="fill:none;stroke:#FFFFFF;stroke-width:2;stroke-linecap:round;stroke-linejoin:round;stroke-miterlimit:10;" d="M46.999,27.708v-5.5l-6.546-1.07c-0.388-1.55-0.996-3.007-1.798-4.342l3.815-5.437L38.58,7.472l-5.368,3.859c-1.338-0.81-2.805-1.428-4.366-1.817L27.706,3h-5.5l-1.06,6.492c-1.562,0.383-3.037,0.993-4.379,1.799l-5.352-3.824l-3.889,3.887l3.765,5.384c-0.814,1.347-1.433,2.82-1.826,4.392l-6.464,1.076v5.5l6.457,1.145c0.39,1.568,1.009,3.041,1.826,4.391l-3.816,5.337l3.887,3.891l5.391-3.776c1.346,0.808,2.817,1.423,4.379,1.808L22.206,47h5.5l1.156-6.513c1.554-0.394,3.022-1.013,4.355-1.824l5.428,3.809l3.888-3.891l-3.875-5.38c0.802-1.335,1.411-2.794,1.795-4.344L46.999,27.708z"/><circle style="fill:none;stroke:#FFFFFF;stroke-width:2;stroke-linecap:round;stroke-linejoin:round;stroke-miterlimit:10;" cx="25" cy="25" r="7"/></symbol>
    <symbol id="fullScreen" viewBox="0 0 15 15">
     <defs/><g fill="none" fill-rule="evenodd" id="Page-1" stroke="none" stroke-width="1"><g fill="#FFF" id="Core" transform="translate(-215.000000, -257.000000)"><g id="fullscreen" transform="translate(215.000000, 257.000000)"><path d="M2,9 L0,9 L0,14 L5,14 L5,12 L2,12 L2,9 L2,9 Z M0,5 L2,5 L2,2 L5,2 L5,0 L0,0 L0,5 L0,5 Z M12,12 L9,12 L9,14 L14,14 L14,9 L12,9 L12,12 L12,12 Z M9,0 L9,2 L12,2 L12,5 L14,5 L14,0 L9,0 L9,0 Z" id="Shape"/></g></g></g>
    </symbol>

    <symbol id="play" viewBox="0 0 15 15">
        <path fill-rule="evenodd" clip-rule="evenodd" d="M0.7314 15.9551C0.6324 16.0311 0.4914 16.0131 0.4154 15.9131C0.3774 15.8621 0.3604 15.7991 0.3704 15.7381V0.265058C0.3484 0.143058 0.4314 0.0250581 0.5524 0.00305814C0.6164 -0.00594186 0.6804 0.0100581 0.7284 0.0480581L15.4794 7.81106C15.6774 7.91706 15.6774 8.08606 15.4794 8.19106L0.7314 15.9551Z" fill="white"/>
    </symbol>

    <symbol id="stop" viewBox="0 0 20 20">
        <path fill-rule="evenodd" clip-rule="evenodd" d="M5.0039 16.5021C5.0199 16.7611 4.8229 16.9831 4.5609 17.0041H4.5019H1.5019C1.2429 17.0201 1.0199 16.8231 0.9999 16.5611V16.5021V1.50205C0.9839 1.24305 1.1809 1.02005 1.4429 1.00005H1.5019H4.5019C4.7609 0.984055 4.9839 1.18105 5.0039 1.44305V1.50205V16.5021ZM13.0039 1.50605C13.0199 1.24705 12.8229 1.02305 12.5609 1.00405H12.5019H9.5019C9.2429 0.988055 9.0199 1.18505 8.9999 1.44705V1.50605V16.5061C8.9839 16.7651 9.1799 16.9871 9.4429 17.0081H9.5019H12.5019C12.7599 17.0231 12.9839 16.8271 13.0039 16.5641V16.5061V1.50605Z" fill="white"/>
    </symbol>
    <symbol id="sound" viewBox="0 0 200 200">
        <path class="cls-1" fill="#FFFFFF" d="M100,175.69a5,5,0,0,1-3.37-1.31L48.06,130H29.31a5,5,0,0,1-5-5V75a5,5,0,0,1,5-5H48.06L96.63,25.62A5,5,0,0,1,105,29.31V170.69a5,5,0,0,1-5,5ZM34.31,120H50a5,5,0,0,1,3.37,1.31l41.63,38V40.65l-41.63,38A5,5,0,0,1,50,80H34.31Z"/><path fill="#FFFFFF"  class="cls-1" d="M119.4,122.53a5,5,0,0,1-3.54-8.53,19.82,19.82,0,0,0,0-28,5,5,0,0,1,7.07-7.07,29.83,29.83,0,0,1,0,42.14A5,5,0,0,1,119.4,122.53Z"/><path fill="#FFFFFF" class="cls-1" d="M137.08,140.21a5,5,0,0,1-3.54-8.54,44.78,44.78,0,0,0,0-63.34,5,5,0,1,1,7.07-7.07,54.78,54.78,0,0,1,0,77.48A5,5,0,0,1,137.08,140.21Z"/><path fill="#FFFFFF" class="cls-1" d="M152,155.13a5,5,0,0,1-3.54-8.53,65.91,65.91,0,0,0,0-93.2,5,5,0,1,1,7.07-7.07,75.9,75.9,0,0,1,0,107.34A5,5,0,0,1,152,155.13Z"/>
    </symbol>


</svg>